HIERARCHY
ROOT Hips
{
	OFFSET -3.958830 18.904000 13.208200
	CHANNELS 6 Xposition Yposition Zposition Zrotation Yrotation Xrotation 
	JOINT LHipJoint
	{
		OFFSET 0.000000 0.000000 0.000000
		CHANNELS 3 Zrotation Yrotation Xrotation
		JOINT LeftUpLeg
		{
			OFFSET 1.800000 -1.400000 0.085000
			CHANNELS 3 Zrotation Yrotation Xrotation
			JOINT LeftLeg
			{
				OFFSET 2.215000 -6.000000 0.000000
				CHANNELS 3 Zrotation Yrotation Xrotation
				JOINT LeftFoot
				{
					OFFSET 2.500000 -6.900000 0.000000
					CHANNELS 3 Zrotation Yrotation Xrotation
					JOINT LeftToeBase
					{
						OFFSET 0.200000 -0.500000 1.950000
						CHANNELS 3 Zrotation Yrotation Xrotation
						End Site
						{
							OFFSET 0.000000 0.000000 0.000000
						}
					}
				}
			}
		}
	}
	JOINT RHipJoint
	{
		OFFSET 0.000000 0.000000 0.000000
		CHANNELS 3 Zrotation Yrotation Xrotation
		JOINT RightUpLeg
		{
			OFFSET -1.800000 -1.400000 0.085000
			CHANNELS 3 Zrotation Yrotation Xrotation
			JOINT RightLeg
			{
				OFFSET -2.215000 -6.000000 0.000000
				CHANNELS 3 Zrotation Yrotation Xrotation
				JOINT RightFoot
				{
					OFFSET -2.500000 -6.900000 0.000000
					CHANNELS 3 Zrotation Yrotation Xrotation
					JOINT RightToeBase
					{
						OFFSET -0.200000 -0.500000 1.950000
						CHANNELS 3 Zrotation Yrotation Xrotation
						End Site
						{
							OFFSET 0.000000 0.000000 0.000000
						}
					}
				}
			}
		}
	}
	JOINT LowerBack
	{
		OFFSET 0.000000 0.000000 0.000000
		CHANNELS 3 Zrotation Yrotation Xrotation
		JOINT Spine
		{
			OFFSET -0.087000 1.940000 -0.288900
			CHANNELS 3 Zrotation Yrotation Xrotation
			JOINT Spine1
			{
				OFFSET 0.000000 1.950000 0.060000
				CHANNELS 3 Zrotation Yrotation Xrotation
				JOINT Neck
				{
					OFFSET 0.000000 0.000000 0.000000
					CHANNELS 3 Zrotation Yrotation Xrotation
					JOINT Neck1
					{
						OFFSET 0.000000 1.600000 0.340000
						CHANNELS 3 Zrotation Yrotation Xrotation
						JOINT Head
						{
							OFFSET 0.000000 1.667000 -0.240000
							CHANNELS 3 Zrotation Yrotation Xrotation
							End Site
							{
								OFFSET 0.000000 0.000000 0.000000
							}
						}
					}
				}
				JOINT LeftShoulder
				{
					OFFSET 0.000000 0.000000 0.000000
					CHANNELS 3 Zrotation Yrotation Xrotation
					JOINT LeftArm
					{
						OFFSET 2.700000 1.550000 -0.730000
						CHANNELS 3 Zrotation Yrotation Xrotation
						JOINT LeftForeArm
						{
							OFFSET 5.450000 0.000000 0.000000
							CHANNELS 3 Zrotation Yrotation Xrotation
							JOINT LeftHand
							{
								OFFSET 3.450000 0.000000 0.000000
								CHANNELS 3 Zrotation Yrotation Xrotation
								JOINT LeftHandIndex1
								{
									OFFSET 0.750000 0.000000 0.000000
									CHANNELS 3 Zrotation Yrotation Xrotation
									End Site
									{
										OFFSET 0.000000 0.000000 0.000000
									}
								}
							}
						}
					}
				}
				JOINT RightShoulder
				{
					OFFSET 0.000000 0.000000 0.000000
					CHANNELS 3 Zrotation Yrotation Xrotation
					JOINT RightArm
					{
						OFFSET -2.700000 1.550000 -0.730000
						CHANNELS 3 Zrotation Yrotation Xrotation
						JOINT RightForeArm
						{
							OFFSET -5.450000 0.000000 0.000000
							CHANNELS 3 Zrotation Yrotation Xrotation
							JOINT RightHand
							{
								OFFSET -3.450000 0.000000 0.000000
								CHANNELS 3 Zrotation Yrotation Xrotation
								JOINT RightHandIndex1
								{
									OFFSET -0.750000 0.000000 0.000000
									CHANNELS 3 Zrotation Yrotation Xrotation
									End Site
									{
										OFFSET 0.000000 0.000000 0.000000
									}
								}
							}
						}
					}
				}
			}
		}
	}
}
MOTION
Frames: 8
Frame Time: 0.016667
-1.002930 14.299060 1.307290 -8.257849 8.087067 -1.691836 -16.353920 7.453815 8.194018 39.065433 -8.377096 -68.140736 -18.627958 51.230474 94.213265 3.670097 20.878810 -1.812672 0.857490 0.954430 0.653120 18.424486 -3.213122 5.945942 -22.406871 19.701238 -71.796503 26.439576 -45.719651 89.047559 -4.437281 -18.620824 -1.151524 0.465450 -0.506120 0.070960 -1.884518 -5.212777 -12.467789 1.432276 2.795400 73.709744 -2.125065 7.770921 -7.863547 4.102696 -3.731651 -27.465316 -21.446617 2.857203 65.244177 12.568410 -2.886780 -25.087200 -25.962919 -49.798398 -14.473565 5.025670 -34.815520 -20.470936 26.924767 -82.228447 -17.964527 -2.598018 2.870876 0.762640 -0.559220 0.731340 0.076000 24.491799 57.445562 18.618546 20.809542 49.122124 -10.512065 23.132187 28.184524 2.566016 2.854945 -0.659973 0.148140 0.255650 -0.292620 -0.113040 
-1.057180 13.949250 1.340980 -8.106390 7.773238 -3.121180 -16.423371 6.959495 8.617781 44.158024 -6.644242 -69.956198 -20.990103 58.055786 97.452910 3.990555 21.658815 -1.864018 0.860180 0.967010 0.642910 18.436002 -2.768081 6.003471 -24.245768 19.784879 -75.771613 24.236914 -50.738812 96.095722 -4.846188 -20.191325 -1.397328 0.483300 -0.475760 0.074700 -1.792868 -5.302762 -12.718694 3.108451 3.223981 74.654865 -1.710405 7.041774 -7.950532 3.104007 -4.097497 -25.872065 -21.753135 2.598738 63.878582 12.808490 -2.272580 -24.753230 -25.967907 -51.483505 -15.783654 6.859153 -36.861478 -20.755436 31.617336 -85.978600 -22.997069 -2.576906 2.748947 0.741280 -0.535490 0.716500 0.088690 25.999640 56.618740 18.085015 24.062142 47.319930 -11.825445 28.918164 31.094524 3.240418 2.381499 -0.908015 0.141850 0.265560 -0.293020 -0.104120 
-1.086980 13.619350 1.387620 -8.175764 8.255568 -5.176580 -16.440252 6.594760 8.871072 47.470725 -5.850917 -70.665718 -21.080680 62.947305 101.954527 4.279846 22.361059 -1.903374 0.860540 0.979340 0.627490 18.459904 -2.459205 6.082187 -26.864886 18.979491 -78.376340 23.571649 -56.465105 100.935807 -5.199824 -21.464140 -1.563214 0.493670 -0.454540 0.077190 -1.767147 -5.341303 -12.876535 5.875582 2.289702 75.808130 -1.938582 5.379925 -8.067794 2.610490 -4.444307 -23.796322 -22.441886 2.349735 62.474585 12.613600 -2.472410 -24.783190 -26.256289 -52.664658 -16.036093 8.092184 -37.947444 -21.420540 42.727554 -89.151961 -34.073989 -2.523399 2.395263 0.713570 -0.518620 0.702150 0.100280 26.433849 56.318943 16.786089 26.100677 45.401817 -12.177893 33.180295 34.073763 4.376121 2.150814 -1.096442 0.146240 0.269400 -0.294400 -0.088670 
-1.106690 13.311880 1.439280 -8.103425 9.535483 -7.915241 -16.409512 6.321734 8.998567 49.047649 -6.548385 -70.645013 -17.800414 66.162195 109.541381 4.637234 23.519504 -2.015545 0.839060 0.955400 0.613540 18.498784 -2.267506 6.153909 -29.334029 17.786066 -79.350264 21.677023 -61.904456 106.375639 -5.530842 -22.689809 -1.704839 0.488020 -0.431850 0.074340 -1.797112 -5.338015 -12.956749 9.046943 0.623315 77.112235 -2.371820 2.727677 -8.044418 2.368546 -4.456924 -21.345190 -22.495865 1.943638 61.226446 11.911290 -2.882780 -24.850040 -25.853018 -53.684787 -15.497072 9.973256 -38.442350 -22.482682 -123.608606 -88.982444 133.367511 -2.428521 1.611456 0.695280 -0.499040 0.677600 0.095600 25.376961 56.406973 14.860748 25.941284 43.660729 -12.466353 36.354099 38.384372 6.380387 1.992486 -1.234238 0.134550 0.278370 -0.279990 -0.086470 
-1.123160 13.036860 1.505150 -7.766856 11.372981 -10.931915 -16.338290 6.048990 9.079869 49.712286 -7.970213 -70.618157 -12.445298 68.348503 118.955256 5.083400 24.957905 -2.136106 0.817510 0.929650 0.588930 18.564801 -2.166039 6.226358 -31.634144 16.413128 -78.802389 18.596753 -66.430920 112.220890 -5.842025 -23.856025 -1.822763 0.474260 -0.414970 0.070810 -1.901156 -5.213345 -13.022657 11.880870 -1.582704 78.242605 -3.425534 -0.487696 -7.915176 2.528392 -4.339863 -19.337463 -22.480902 1.265843 59.943202 11.862890 -4.000210 -24.942030 -24.479705 -54.162373 -13.940784 12.930046 -38.394606 -23.215250 -124.474903 -89.701971 135.567229 -2.509161 1.802341 0.676660 -0.492010 0.656630 0.098050 22.655378 56.937527 12.429609 23.389527 42.468796 -13.126766 37.810022 43.501240 8.967409 1.885480 -1.358478 0.132570 0.278500 -0.271450 -0.074930 
-1.145690 12.788380 1.545000 -7.155947 13.322326 -13.062234 -16.253130 5.751797 9.051801 49.257445 -8.866085 -71.488112 -5.908929 69.220430 128.486364 5.522966 26.369454 -2.218499 0.785320 0.886020 0.552640 18.661959 -2.029335 6.427297 -35.450762 14.671530 -78.907570 18.159023 -71.311594 115.206923 -6.044725 -24.552630 -1.857284 0.453480 -0.390590 0.060390 -2.051924 -4.987243 -13.098219 14.408498 -3.306284 78.328738 -4.463590 -3.473845 -7.482396 2.741461 -4.092898 -16.973731 -21.326911 0.285841 57.582248 11.883520 -5.192870 -25.092870 -20.986265 -53.956374 -11.476716 16.876087 -37.777176 -24.168021 54.257961 -86.187968 -38.712711 -2.653801 2.049770 0.651640 -0.481500 0.618870 0.102230 17.791294 57.379367 8.557431 18.440512 41.074721 -14.825909 36.789708 49.239911 11.705741 1.764221 -1.557270 0.123750 0.280270 -0.258010 -0.064110 
-1.148240 12.621120 1.595530 -6.389509 16.056232 -15.504886 -16.151903 5.606156 8.883723 47.462246 -10.454682 -72.081615 0.205738 68.721566 136.749031 5.868701 27.407620 -2.245588 0.746650 0.832790 0.512040 18.752924 -1.979213 6.618528 -38.693529 12.855049 -76.303479 16.956429 -75.303473 118.283163 -6.205849 -25.090034 -1.870686 0.425970 -0.368390 0.051400 -2.191099 -4.868968 -13.100793 16.326001 -5.592800 78.394549 -5.678216 -6.306213 -6.931405 3.201680 -4.096878 -15.103301 -20.382683 0.006392 55.654010 11.597270 -6.132200 -24.774920 -18.295292 -53.925527 -7.968819 21.604444 -35.881830 -24.944974 51.371178 -80.767867 -31.699182 -2.861744 2.383376 0.628630 -0.470700 0.579910 0.102850 13.349096 57.850850 3.781350 12.781550 37.650752 -17.542673 32.295139 53.195257 12.167682 1.805358 -1.789270 0.114660 0.275300 -0.240150 -0.055080 
-1.156210 12.530470 1.659940 -6.321460 17.455909 -17.784567 -16.115246 5.716477 8.650838 45.055234 -12.155512 -71.156336 6.998458 65.904347 144.498330 6.009915 27.536939 -2.181278 0.726660 0.804840 0.489960 18.764523 -2.022590 6.682070 -39.533938 12.671279 -72.835726 15.890774 -77.527545 120.411863 -6.330430 -25.479244 -1.879771 0.403700 -0.369150 0.044370 -2.222840 -4.977949 -13.030278 17.569029 -7.295522 78.456912 -6.855673 -7.581002 -6.727105 4.061403 -4.093245 -14.383290 -20.248981 0.339671 55.401796 11.600390 -6.779150 -24.249810 -16.818316 -53.693982 -5.153826 24.928452 -34.230682 -24.919659 43.531015 -74.617438 -22.355989 -3.090505 2.781050 0.619410 -0.476200 0.566510 0.102600 9.755130 58.188723 0.221836 6.617506 34.165676 -18.153612 25.407929 52.924446 10.036516 2.017062 -1.736959 0.118230 0.262300 -0.235450 -0.048410 
